<svg version="1.1" id="Layer_1" xmlns="http://www.w3.org/2000/svg" xmlns:xlink="http://www.w3.org/1999/xlink" x="0px" y="0px"
	 width="100%" viewBox="0 0 512 512" enable-background="new 0 0 512 512" xml:space="preserve">
<path fill="#FFFFFF" opacity="1.000000" stroke="none" 
	d="
M1.000000,290.000000 
	C1.000000,268.312439 1.000000,246.624878 1.364801,224.770233 
	C2.147208,223.933182 2.814444,223.308060 2.944064,222.586395 
	C4.344114,214.791595 5.324767,206.906448 7.057404,199.189087 
	C13.769924,169.290695 25.638458,141.545395 42.529514,115.965385 
	C53.517181,99.325539 65.956383,83.901390 80.908348,70.625175 
	C88.624214,63.774067 96.046227,56.489456 104.348099,50.423115 
	C119.679634,39.220066 136.008728,29.556757 153.537888,22.062061 
	C175.527527,12.660261 198.191605,5.712323 222.033051,2.923337 
	C222.753845,2.839020 223.347214,1.665632 224.000000,1.000000 
	C245.687561,1.000000 267.375122,1.000000 289.229797,1.364817 
	C290.066833,2.147227 290.691895,2.814444 291.413544,2.944061 
	C299.208344,4.344108 307.093475,5.324772 314.810852,7.057405 
	C344.709259,13.769891 372.454559,25.638445 398.034607,42.529495 
	C414.674438,53.517159 430.098572,65.956367 443.374756,80.908356 
	C450.225861,88.624229 457.510559,96.046173 463.576874,104.348061 
	C474.779938,119.679619 484.443237,136.008728 491.937927,153.537903 
	C501.339691,175.527557 508.287689,198.191605 511.076691,222.033020 
	C511.160980,222.753815 512.334412,223.347198 513.000000,224.000000 
	C513.000000,245.687561 513.000000,267.375122 512.635132,289.229797 
	C511.852753,290.066864 511.185547,290.691956 511.055939,291.413574 
	C509.655853,299.208344 508.675171,307.093475 506.942566,314.810852 
	C500.230133,344.709259 488.361603,372.454559 471.470551,398.034576 
	C460.482880,414.674408 448.043701,430.098511 433.091736,443.374756 
	C425.375854,450.225891 417.953888,457.510559 409.652039,463.576904 
	C394.320526,474.779968 377.991302,484.443085 360.462189,491.937866 
	C338.472565,501.339813 315.808472,508.287567 291.967072,511.076721 
	C291.246246,511.161011 290.652802,512.334351 290.000000,513.000000 
	C268.312439,513.000000 246.624878,513.000000 224.770218,512.635193 
	C223.933197,511.852783 223.308090,511.185547 222.586426,511.055939 
	C214.791656,509.655884 206.906525,508.675171 199.189163,506.942535 
	C169.290756,500.230103 141.545425,488.361603 115.965401,471.470520 
	C99.325569,460.482849 83.901459,448.043610 70.625221,433.091675 
	C63.774132,425.375824 56.489483,417.953796 50.423172,409.651947 
	C39.220127,394.320404 29.556826,377.991302 22.062088,360.462158 
	C12.660254,338.472504 5.712377,315.808441 2.923336,291.967010 
	C2.839013,291.246216 1.665632,290.652802 1.000000,290.000000 
M325.604065,401.821320 
	C326.179382,401.503632 326.743927,401.164368 327.331512,400.871277 
	C406.796051,361.240448 439.830627,265.588593 401.267975,187.148392 
	C399.676056,183.910355 397.903503,182.992096 394.496796,183.027756 
	C378.336151,183.196869 362.172760,183.103317 346.010345,183.103317 
	C340.891785,183.103317 335.773254,183.103317 330.308105,183.103317 
	C330.308105,159.835846 330.308105,137.061676 330.308105,114.278770 
	C328.541260,113.403725 327.073761,112.633675 325.571350,111.939171 
	C285.479828,93.406303 244.489059,91.244835 202.804153,105.755379 
	C129.566498,131.249466 84.752678,208.423386 98.910378,284.625763 
	C107.936401,333.207367 134.038361,370.023499 176.160965,396.226440 
	C174.004639,406.990143 171.848312,417.753815 169.645691,428.748688 
	C225.085068,428.748688 279.062561,428.748688 333.067688,428.748688 
	C333.067688,419.991272 333.067688,411.579407 333.067688,403.093781 
	C330.187897,402.778076 327.596436,402.493988 325.604065,401.821320 
M429.372162,148.125031 
	C403.147247,121.865097 376.922363,95.605156 350.364807,69.012131 
	C350.364807,100.884087 350.364807,131.913010 350.364807,162.784775 
	C381.620270,162.784775 412.481140,162.784775 443.738861,162.784775 
	C443.134857,162.052460 442.871490,161.676407 442.552765,161.355286 
	C438.333923,157.104584 434.107239,152.861633 429.372162,148.125031 
z"/>

<path fill="#010211" opacity="1.000000" stroke="none" 
	d="
M176.300903,395.479706 
	C134.038361,370.023499 107.936401,333.207367 98.910378,284.625763 
	C84.752678,208.423386 129.566498,131.249466 202.804153,105.755379 
	C244.489059,91.244835 285.479828,93.406303 325.571350,111.939171 
	C327.073761,112.633675 328.541260,113.403725 330.308105,114.278770 
	C330.308105,137.061676 330.308105,159.835846 330.308105,183.103317 
	C335.773254,183.103317 340.891785,183.103317 346.010345,183.103317 
	C362.172760,183.103317 378.336151,183.196869 394.496796,183.027756 
	C397.903503,182.992096 399.676056,183.910355 401.267975,187.148392 
	C439.830627,265.588593 406.796051,361.240448 327.331512,400.871277 
	C326.743927,401.164368 326.179382,401.503632 324.839691,402.027954 
	C284.813232,402.234589 245.551163,402.234589 206.296738,402.234589 
	C206.205093,395.574646 210.097794,387.011200 216.875839,378.819702 
	C226.581665,367.089783 239.172318,358.981354 251.815811,350.888672 
	C268.476532,340.224731 285.570679,330.109863 301.408569,318.321442 
	C320.633881,304.011658 333.372101,285.016876 335.542358,260.321045 
	C337.661285,236.209320 332.294647,214.590164 313.390442,197.977646 
	C299.714508,185.959595 283.200806,180.710236 265.380371,179.459244 
	C242.714279,177.868103 221.488632,182.235458 203.816956,197.454041 
	C183.327698,215.099121 176.827621,238.570480 177.132431,264.658325 
	C177.176590,268.437866 179.692429,267.772339 181.875702,268.505066 
	C187.642090,299.409088 205.521347,319.334259 234.442719,329.750366 
	C232.387466,331.367157 230.454727,332.610901 228.685272,334.054718 
	C218.070679,342.716034 206.952789,350.855011 197.054642,360.273621 
	C186.970840,369.868927 181.366562,382.641724 176.300903,395.479706 
z"/>
<path fill="#01B1BD" opacity="1.000000" stroke="none" 
	d="
M181.852310,268.096344 
	C179.692429,267.772339 177.176590,268.437866 177.132431,264.658325 
	C176.827621,238.570480 183.327698,215.099121 203.816956,197.454041 
	C221.488632,182.235458 242.714279,177.868103 265.380371,179.459244 
	C283.200806,180.710236 299.714508,185.959595 313.390442,197.977646 
	C332.294647,214.590164 337.661285,236.209320 335.542358,260.321045 
	C333.372101,285.016876 320.633881,304.011658 301.408569,318.321442 
	C285.570679,330.109863 268.476532,340.224731 251.815811,350.888672 
	C239.172318,358.981354 226.581665,367.089783 216.875839,378.819702 
	C210.097794,387.011200 206.205093,395.574646 206.296738,402.234589 
	C245.551163,402.234589 284.813232,402.234589 324.540161,402.222260 
	C327.596436,402.493988 330.187897,402.778076 333.067688,403.093781 
	C333.067688,411.579407 333.067688,419.991272 333.067688,428.748688 
	C279.062561,428.748688 225.085068,428.748688 169.645691,428.748688 
	C171.848312,417.753815 174.004639,406.990143 176.230927,395.853088 
	C181.366562,382.641724 186.970840,369.868927 197.054642,360.273621 
	C206.952789,350.855011 218.070679,342.716034 228.685272,334.054718 
	C230.454727,332.610901 232.387466,331.367157 234.769882,329.732605 
	C251.191116,318.632843 267.512756,308.396149 282.843414,296.844330 
	C294.298828,288.212555 300.995514,276.016937 303.433014,261.519104 
	C309.693329,224.284286 279.898315,201.000809 246.774323,206.700928 
	C226.346054,210.216324 215.591934,224.544266 210.339386,243.374847 
	C208.180878,251.113251 207.623062,259.298157 206.205597,268.096344 
	C198.399826,268.096344 190.126068,268.096344 181.852310,268.096344 
z"/>
<path fill="#02B2BE" opacity="1.000000" stroke="none" 
	d="
M429.627350,148.370880 
	C434.107239,152.861633 438.333923,157.104584 442.552765,161.355286 
	C442.871490,161.676407 443.134857,162.052460 443.738861,162.784775 
	C412.481140,162.784775 381.620270,162.784775 350.364807,162.784775 
	C350.364807,131.913010 350.364807,100.884087 350.364807,69.012131 
	C376.922363,95.605156 403.147247,121.865097 429.627350,148.370880 
z"/>
<path fill="#FEFEFE" opacity="1.000000" stroke="none" 
	d="
M181.875702,268.505066 
	C190.126068,268.096344 198.399826,268.096344 206.205597,268.096344 
	C207.623062,259.298157 208.180878,251.113251 210.339386,243.374847 
	C215.591934,224.544266 226.346054,210.216324 246.774323,206.700928 
	C279.898315,201.000809 309.693329,224.284286 303.433014,261.519104 
	C300.995514,276.016937 294.298828,288.212555 282.843414,296.844330 
	C267.512756,308.396149 251.191116,318.632843 234.967865,329.452026 
	C205.521347,319.334259 187.642090,299.409088 181.875702,268.505066 
z"/>
</svg>