<svg version="1.1" id="Layer_1" xmlns="http://www.w3.org/2000/svg" xmlns:xlink="http://www.w3.org/1999/xlink" x="0px" y="0px"
	 width="100%" viewBox="0 0 1024 1024" enable-background="new 0 0 1024 1024" xml:space="preserve">

<path fill="#1A1A1A" opacity="1.000000" stroke="none" 
	d="
M490.607788,897.256470 
	C408.120544,892.750244 335.374115,863.991882 271.398529,812.930786 
	C230.254196,780.092163 197.599487,740.101013 173.125214,693.394653 
	C151.704895,652.516235 137.942535,609.264038 132.361801,563.506592 
	C130.491684,548.173279 129.030594,532.648926 129.206329,517.232727 
	C129.812897,464.027039 139.950623,412.761017 161.879776,363.965302 
	C176.531723,331.362457 195.129425,301.300598 217.915512,273.860352 
	C247.374634,238.384079 282.470093,209.553848 322.517639,186.743744 
	C365.007141,162.542770 410.556519,147.210617 458.922760,140.373596 
	C484.703705,136.729218 510.607239,136.163177 536.637451,137.787674 
	C580.032166,140.495850 621.429260,150.961731 661.196716,168.268631 
	C666.388062,170.527924 671.456909,173.068665 676.646973,175.331223 
	C681.334961,177.374954 683.117798,180.624969 683.099548,185.888474 
	C682.928223,235.220779 682.997009,284.553925 683.002319,333.886841 
	C683.003357,342.985413 683.015869,342.996948 692.197571,342.997772 
	C741.363831,343.002197 790.530457,343.094269 839.695740,342.876556 
	C845.550781,342.850647 848.550598,344.838928 851.170227,350.038544 
	C870.339722,388.087311 882.356262,428.316437 887.588013,470.476166 
	C889.714050,487.609680 891.068909,505.000549 890.784119,522.241455 
	C889.916382,574.786926 879.095459,625.271729 857.413757,673.362183 
	C841.817749,707.954285 821.700012,739.618835 796.949707,768.265320 
	C768.150085,801.598572 734.156921,828.674744 695.700928,850.161499 
	C656.451599,872.091492 614.527161,886.275513 570.200500,893.426270 
	C545.471558,897.415466 520.545471,898.563965 495.526337,897.913818 
	C494.037506,897.875183 492.556702,897.525330 490.607788,897.256470 
M536.662476,694.177490 
	C580.697449,687.052307 617.105957,666.419922 646.107727,632.556335 
	C671.914856,602.422974 686.090759,567.394714 688.744324,528.029358 
	C690.851440,496.771606 684.687988,466.830811 670.609680,438.653076 
	C662.208191,421.837585 651.595520,406.571503 638.527893,393.101379 
	C622.731262,376.818237 604.528015,363.908539 583.859497,354.342255 
	C553.101379,340.105988 520.888184,334.880219 487.457825,339.376740 
	C439.394897,345.841339 399.803345,368.366699 369.707581,406.288330 
	C337.286774,447.139618 325.049713,493.937958 333.037262,545.554382 
	C338.984497,583.985840 356.676758,616.811340 383.961212,644.207642 
	C399.547272,659.857666 417.738251,672.165833 438.129150,681.114441 
	C469.463379,694.865662 501.998779,699.106628 536.662476,694.177490 
z"/>
<path fill="#CC0000" opacity="1.000000" stroke="none" 
	d="
M731.000000,171.000000 
	C731.000000,138.189301 731.000000,105.878593 731.000000,72.669861 
	C732.624268,73.350754 733.762756,73.669731 734.718323,74.276680 
	C735.541321,74.799484 736.156250,75.650131 736.862549,76.356468 
	C807.783691,147.278687 878.708191,218.197495 949.604858,289.144165 
	C951.303040,290.843658 952.689453,292.854706 954.905823,295.554321 
	C879.768066,295.554321 805.787354,295.554321 731.000000,295.554321 
	C731.000000,254.304428 731.000000,212.902222 731.000000,171.000000 
z"/>

</svg>